<svg width="16" height="18" viewBox="0 0 16 18" fill="none" xmlns="http://www.w3.org/2000/svg">
<path d="M11.1866 12.915L11.2024 12.9239L11.215 12.9107C11.4455 12.6697 11.7225 12.4778 12.0292 12.3468C12.336 12.2158 12.6661 12.1483 12.9996 12.1485C13.5168 12.1484 14.0211 12.3103 14.4417 12.6115C14.8622 12.9126 15.1779 13.3378 15.3445 13.8275C15.511 14.3172 15.5201 14.8468 15.3704 15.3419C15.2206 15.837 14.9197 16.2728 14.5097 16.5881C14.0997 16.9034 13.6012 17.0825 13.0843 17.1001C12.5673 17.1178 12.0578 16.9731 11.6273 16.6865C11.1968 16.3998 10.8668 15.9856 10.6837 15.5018C10.5005 15.0181 10.4735 14.4891 10.6062 13.9892L10.6109 13.9717L10.5951 13.9628L4.81383 10.7101L4.798 10.7011L4.78543 10.7143C4.44333 11.071 4.00234 11.3171 3.51918 11.4211C3.03602 11.5251 2.5328 11.4822 2.07425 11.2978C1.6157 11.1135 1.22279 10.7961 0.946072 10.3867C0.669354 9.97716 0.521484 9.49424 0.521484 9.00002C0.521484 8.50579 0.669354 8.02287 0.946072 7.61338C1.22279 7.20389 1.6157 6.88655 2.07425 6.7022C2.5328 6.51785 3.03603 6.47491 3.51918 6.5789C4.00234 6.6829 4.44333 6.92908 4.78543 7.28577L4.798 7.29888L4.81383 7.28997L10.5951 4.03724L10.6109 4.02833L10.6062 4.01078C10.4516 3.43032 10.5139 2.8134 10.7815 2.27559C11.0491 1.73778 11.5036 1.31599 12.0599 1.08924C12.6161 0.86248 13.236 0.846316 13.8033 1.04377C14.3706 1.24123 14.8465 1.63876 15.1418 2.16189C15.437 2.68502 15.5314 3.29786 15.4073 3.88559C15.2831 4.47332 14.9489 4.99562 14.4673 5.35464C13.9857 5.71366 13.3897 5.88477 12.791 5.83591C12.1923 5.78705 11.6319 5.52157 11.2149 5.08921L11.2023 5.07618L11.1866 5.08506L5.4053 8.33779L5.38947 8.3467L5.39415 8.36425C5.50508 8.78084 5.50508 9.2192 5.39415 9.63578L5.38947 9.65333L5.4053 9.66224L11.1866 12.915Z" fill="black" stroke="#112211" stroke-width="0.046875"/>
</svg>
