<svg width="16" height="15" viewBox="0 0 16 15" fill="none" xmlns="http://www.w3.org/2000/svg">
<path d="M12.3122 14C12.2069 14.0004 12.1042 13.9676 12.0187 13.9063L7.99966 10.9925L3.9806 13.9063C3.89474 13.9685 3.79129 14.0019 3.68522 14.0015C3.57915 14.0011 3.47595 13.967 3.39054 13.9041C3.30513 13.8412 3.24193 13.7528 3.21009 13.6516C3.17825 13.5504 3.17942 13.4417 3.21341 13.3413L4.78091 8.69844L0.718413 5.9125C0.630416 5.85223 0.564002 5.76539 0.528872 5.66468C0.493743 5.56397 0.491741 5.45466 0.523158 5.35273C0.554575 5.2508 0.617764 5.16159 0.703494 5.09813C0.789224 5.03467 0.893001 5.00028 0.999663 5H6.01154L7.52404 0.345317C7.55662 0.244823 7.6202 0.157233 7.70564 0.0951107C7.79109 0.0329884 7.89402 -0.000473022 7.99966 -0.000473022C8.10531 -0.000473022 8.20823 0.0329884 8.29368 0.0951107C8.37913 0.157233 8.44271 0.244823 8.47529 0.345317L9.98779 5.00157H14.9997C15.1065 5.00151 15.2105 5.03566 15.2964 5.099C15.3824 5.16233 15.4459 5.25154 15.4775 5.35355C15.5091 5.45556 15.5072 5.56501 15.4721 5.66587C15.437 5.76674 15.3706 5.85371 15.2825 5.91407L11.2184 8.69844L12.785 13.34C12.8104 13.4152 12.8175 13.4953 12.8058 13.5737C12.7941 13.6522 12.7639 13.7267 12.7177 13.7912C12.6715 13.8557 12.6107 13.9082 12.5401 13.9445C12.4696 13.9809 12.3915 13.9999 12.3122 14Z" fill="#FF8682"/>
</svg>
